<svg width="21" height="17" viewBox="0 0 21 17" fill="none" xmlns="http://www.w3.org/2000/svg">
<path d="M18.8986 4.13762L18.9113 4.67705C18.9113 10.1855 14.6978 16.5317 6.99168 16.5317C4.62649 16.5317 2.42502 15.8421 0.570312 14.6596C0.897902 14.6976 1.23179 14.7188 1.57001 14.7188C3.53324 14.7188 5.33904 14.0524 6.77261 12.9355C4.93917 12.9017 3.39281 11.6959 2.85896 10.0417C3.1163 10.0903 3.37581 10.1136 3.64806 10.1136C4.03092 10.1136 4.40098 10.065 4.75194 9.9698C2.83552 9.58478 1.39131 7.90308 1.39131 5.88501V5.83212C1.95707 6.14519 2.60155 6.33133 3.28856 6.35464C2.16551 5.60791 1.42532 4.33232 1.42532 2.8875C1.42532 2.12386 1.63165 1.40885 1.99108 0.793293C4.05639 3.31483 7.14477 4.97328 10.6266 5.14676C10.5543 4.84211 10.5182 4.52271 10.5182 4.19698C10.5182 1.89756 12.3942 0.0317383 14.7084 0.0317383C15.9122 0.0317383 17.0013 0.537284 17.7669 1.34748C18.7198 1.15918 19.6174 0.81229 20.4278 0.336318C20.1151 1.30942 19.4515 2.12594 18.5858 2.64207C19.4303 2.54263 20.2406 2.31626 20.9915 1.98628C20.43 2.81972 19.7174 3.55379 18.8986 4.13762Z" fill="white"/>
</svg>
