<svg width="21" height="20" viewBox="0 0 21 20" fill="none" xmlns="http://www.w3.org/2000/svg">
<path fill-rule="evenodd" clip-rule="evenodd" d="M6.86885 0.0914112C7.93552 0.0433414 8.27635 0.0317383 10.9922 0.0317383C13.708 0.0317383 14.0489 0.0433414 15.1155 0.0914112C16.7405 0.165174 18.168 0.561336 19.3139 1.70092C20.4597 2.84051 20.858 4.26023 20.9322 5.87637C20.9805 6.93722 20.9922 7.2762 20.9922 9.97723C20.9922 12.6783 20.9805 13.0172 20.9322 14.0781C20.858 15.6942 20.4597 17.1139 19.3139 18.2535C18.168 19.3931 16.7405 19.7893 15.1155 19.863C14.0489 19.9111 13.708 19.9227 10.9922 19.9227C8.27635 19.9227 7.93552 19.9111 6.86885 19.863C5.24385 19.7893 3.81635 19.3931 2.67052 18.2535C1.52469 17.1139 1.12635 15.6942 1.05219 14.0781C1.00385 13.0172 0.992188 12.6783 0.992188 9.97723C0.992188 7.2762 1.00385 6.93722 1.05219 5.87637C1.12635 4.26023 1.52469 2.84051 2.67052 1.70092C3.81635 0.561336 5.24385 0.165174 6.86885 0.0914112ZM15.0321 1.88175C13.978 1.83368 13.6613 1.82373 10.9913 1.82373C8.3213 1.82373 8.00464 1.83368 6.95047 1.88175C5.81214 1.93313 4.7563 2.16022 3.9438 2.96829C3.1313 3.77636 2.90297 4.82644 2.8513 5.95857C2.80297 7.00699 2.79297 7.32193 2.79297 9.97738C2.79297 12.6328 2.80297 12.9478 2.8513 13.9962C2.90297 15.1283 3.1313 16.1784 3.9438 16.9865C4.7563 17.7945 5.81214 18.0216 6.95047 18.073C8.00464 18.1211 8.3213 18.131 10.9913 18.131C13.6613 18.131 13.978 18.1211 15.0321 18.073C16.1705 18.0216 17.2263 17.7945 18.0388 16.9865C18.8513 16.1784 19.0796 15.1283 19.1313 13.9962C19.1796 12.9478 19.1896 12.6328 19.1896 9.97738C19.1896 7.32193 19.1796 7.00699 19.1313 5.95857C19.0796 4.82644 18.8513 3.77636 18.0388 2.96829C17.2263 2.16022 16.1705 1.93313 15.0321 1.88175ZM5.85547 9.97664C5.85547 7.15626 8.15463 4.86963 10.9905 4.86963C13.8263 4.86963 16.1255 7.15626 16.1255 9.97664C16.1255 12.797 13.8263 15.0836 10.9905 15.0836C8.15463 15.0836 5.85547 12.797 5.85547 9.97664ZM7.65625 9.97678C7.65625 11.8076 9.14875 13.2919 10.9896 13.2919C12.8304 13.2919 14.3229 11.8076 14.3229 9.97678C14.3229 8.14598 12.8304 6.66162 10.9896 6.66162C9.14875 6.66162 7.65625 8.14598 7.65625 9.97678ZM17.5289 4.66856C17.5289 5.32769 16.9916 5.86202 16.3289 5.86202C15.6662 5.86202 15.1289 5.32769 15.1289 4.66856C15.1289 4.00943 15.6662 3.4751 16.3289 3.4751C16.9916 3.4751 17.5289 4.00943 17.5289 4.66856Z" fill="white"/>
</svg>
