<svg width="31" height="35" viewBox="0 0 31 35" fill="none" xmlns="http://www.w3.org/2000/svg">
<circle cx="14.4761" cy="17.3545" r="13.3041" stroke="#FF0051" stroke-width="2.34398"/>
<circle cx="18.2854" cy="3.72485" r="3.72485" fill="#FF0051"/>
<circle cx="8.63549" cy="29.6296" r="4.4021" fill="#FF0051"/>
<path d="M11.5369 19.5813L11.527 19.5734C11.2792 19.3775 10.9643 18.883 10.8633 18.4786C10.8625 18.4662 10.8616 18.4514 10.8607 18.4342C10.8548 18.33 10.8491 18.184 10.844 18.0011C10.8338 17.6379 10.8275 17.1754 10.8259 16.7057C10.8242 16.2358 10.8273 15.7733 10.835 15.4095C10.8387 15.2391 10.8431 15.1007 10.848 14.9984C10.8533 14.9868 10.8591 14.9746 10.8653 14.962C10.8715 14.9494 10.8778 14.9372 10.8841 14.9254C10.9302 14.8905 10.9914 14.8453 11.0711 14.788C11.3466 14.59 11.7678 14.3015 12.3962 13.8821C12.8655 13.5692 13.299 13.2819 13.6203 13.0702C13.6311 13.0701 13.6421 13.07 13.6532 13.0699C14.0752 13.0649 14.6535 13.0615 15.2836 13.0615H15.2881L16.3988 13.0594L16.4829 13.2316L17.1251 14.5474H18.5893H19.3143H20.0394H21.0352L21.7265 13.8306L21.7316 13.8253C21.751 13.8252 21.771 13.8251 21.7917 13.8251C21.9062 13.8247 22.0326 13.8247 22.179 13.8248C22.2235 13.8248 22.2699 13.8248 22.3183 13.8248C22.4125 13.8248 22.4994 13.8248 22.5799 13.8249C22.8344 14.2743 23.2067 14.945 23.7664 15.9571L23.7684 15.9607L25.5113 19.0994L26.1636 20.2741L27.0395 20.2941C27.0374 20.2966 27.0353 20.299 27.0332 20.3015C26.4444 20.9853 26.0154 21.5128 25.6991 22.1458C25.6984 22.1471 25.6977 22.1484 25.6971 22.1498L25.6893 22.1652C25.5398 22.4622 25.3239 22.8911 25.2323 23.5483C25.1729 23.9739 25.1668 24.5157 25.1596 25.1479C25.1592 25.1891 25.1587 25.2308 25.1582 25.2728L25.1582 25.2739C25.1562 25.4533 25.1542 25.6064 25.1521 25.7375C24.8809 25.9456 24.6049 26.1784 24.4085 26.3663L24.3997 26.3748L24.3909 26.3833L24.0351 26.7311L23.218 27.5298L23.3438 28.6655L23.3753 28.95L23.3762 28.9575L23.377 28.965C23.407 29.2205 23.4832 29.5825 23.556 29.8815C23.407 30.0867 23.2359 30.3187 23.062 30.5516C22.8247 30.8693 22.59 31.1781 22.4067 31.4131C22.3872 31.4381 22.3686 31.4619 22.351 31.4844C22.3496 31.4844 22.3482 31.4845 22.3468 31.4845C22.1515 31.4914 21.9028 31.4942 21.6457 31.4924C21.4337 31.4909 21.2307 31.4864 21.0613 31.4796C21.0495 31.4539 21.0369 31.4262 21.0235 31.3966C20.9452 31.224 20.8464 31.0013 20.7332 30.7429C20.5072 30.2269 20.2322 29.5874 19.9655 28.9592C19.7161 28.3716 19.4768 27.8006 19.2939 27.3554C19.6182 26.602 19.8001 25.8493 19.8072 24.9854C19.8072 24.983 19.8072 24.9807 19.8073 24.9783L11.5369 19.5813ZM11.5369 19.5813L11.5467 19.5892M11.5369 19.5813L11.5467 19.5892M11.5467 19.5892C11.7463 19.7507 11.851 19.7499 11.8604 19.7498L11.8608 19.7498C11.8641 19.7498 11.8672 19.7498 11.87 19.7497C11.8878 19.7434 11.9165 19.7324 11.9589 19.7146C12.0364 19.6819 12.1425 19.6334 12.2959 19.5585L12.2958 19.5585M11.5467 19.5892L12.2958 19.5585M12.2958 19.5585L12.304 19.5546M12.2958 19.5585L12.304 19.5546M12.304 19.5546C12.9585 19.238 13.7228 18.914 14.4414 18.8059C14.4423 18.8058 14.4432 18.8056 14.4442 18.8055C14.5041 18.7957 14.7713 18.7522 15.0883 18.7738C15.4655 18.7996 15.7708 18.9011 15.9905 18.9948C16.2692 19.1136 16.5905 19.3071 16.8419 19.4585C16.8664 19.4733 16.8903 19.4877 16.9134 19.5015L16.9134 19.5015M12.304 19.5546L16.9134 19.5015M16.9134 19.5015L16.9191 19.505M16.9134 19.5015L16.9191 19.505M16.9191 19.505L17.6217 19.9295L18.7535 20.6134M16.9191 19.505L18.7535 20.6134M18.7535 20.6134V21.9357M18.7535 20.6134V21.9357M18.7535 21.9357V22.2678M18.7535 21.9357V22.2678M18.7535 22.2678C19.0281 22.5683 19.2725 22.9105 19.4549 23.2571L18.7535 22.2678ZM22.5949 31.4707C22.5948 31.4706 22.592 31.4709 22.5869 31.4715C22.5924 31.471 22.5949 31.4707 22.5949 31.4707ZM20.7525 31.4609C20.7424 31.4596 20.7368 31.459 20.7366 31.459C20.7363 31.4591 20.7413 31.4598 20.7525 31.4609ZM23.9581 29.3102C23.9581 29.3103 23.9571 29.3118 23.9554 29.3146C23.9573 29.3116 23.9582 29.3101 23.9581 29.3102ZM29.1384 20.3535C29.1383 20.3535 29.1373 20.3534 29.135 20.3531C29.1372 20.3534 29.1384 20.3535 29.1384 20.3535ZM23.4032 13.8341C23.414 13.8351 23.4155 13.8349 23.406 13.8343C23.4051 13.8342 23.4042 13.8341 23.4032 13.8341ZM22.095 13.4518C22.0947 13.452 22.0938 13.4528 22.0923 13.4543C22.0944 13.4524 22.0953 13.4515 22.095 13.4518ZM10.7793 15.0083C10.7794 15.0083 10.7822 15.0059 10.7872 15.0015C10.7816 15.0061 10.7791 15.0083 10.7793 15.0083ZM18.7578 22.7895C18.7578 22.7906 18.7579 22.7916 18.758 22.7925L18.7578 22.7895ZM18.1794 21.7381C18.1792 21.738 18.1821 21.7404 18.1885 21.7453C18.1828 21.7406 18.1796 21.7381 18.1794 21.7381Z" fill="#FF0051" stroke="#FF0051" stroke-width="4.68796"/>
</svg>
