<svg width="21" height="20" viewBox="0 0 21 20" fill="none" xmlns="http://www.w3.org/2000/svg">
<path d="M0.808594 2.23881C0.808594 1.59907 1.03251 1.07129 1.48031 0.655476C1.92812 0.239644 2.51028 0.0317383 3.22678 0.0317383C3.93049 0.0317383 4.49983 0.236439 4.93486 0.64588C5.38266 1.0681 5.60657 1.61826 5.60657 2.29638C5.60657 2.91053 5.38907 3.4223 4.95405 3.83174C4.50624 4.25396 3.91768 4.46507 3.18839 4.46507H3.1692C2.46549 4.46507 1.89614 4.25396 1.46112 3.83174C1.0261 3.40952 0.808594 2.87853 0.808594 2.23881ZM1.05809 19.0317V6.21154H5.31869V19.0317H1.05809ZM7.6793 19.0317H11.9399V11.8732C11.9399 11.4253 11.9911 11.0799 12.0934 10.8368C12.2726 10.4018 12.5445 10.0339 12.9091 9.73325C13.2737 9.43257 13.7311 9.28224 14.2813 9.28224C15.7143 9.28224 16.4308 10.2482 16.4308 12.1802V19.0317H20.6914V11.6812C20.6914 9.78762 20.2436 8.35143 19.348 7.37265C18.4524 6.39386 17.2689 5.90447 15.7975 5.90447C14.147 5.90447 12.8611 6.61457 11.9399 8.03477V8.07315H11.9207L11.9399 8.03477V6.21154H7.6793C7.70488 6.62096 7.71768 7.89401 7.71768 10.0307C7.71768 12.1674 7.70488 15.1678 7.6793 19.0317Z" fill="white"/>
</svg>
