<svg width="18" height="20" viewBox="0 0 18 20" fill="none" xmlns="http://www.w3.org/2000/svg">
<path d="M17.8084 8.1771V4.86056C16.2552 4.86056 15.0699 4.446 14.305 3.64022C13.52 2.72061 13.0802 1.55603 13.0613 0.347043V0.107645L9.92581 0.0317383V13.5022C9.81825 14.09 9.53295 14.6305 9.10844 15.051C8.68392 15.4714 8.14062 15.7515 7.55188 15.8534C6.96315 15.9553 6.35732 15.8741 5.8162 15.6208C5.27507 15.3674 4.8247 14.9542 4.52588 14.4368C4.22706 13.9194 4.09419 13.3228 4.14519 12.7274C4.1962 12.1321 4.42863 11.5668 4.81111 11.1078C5.19358 10.6488 5.70769 10.3181 6.28402 10.1606C6.86035 10.003 7.47116 10.026 8.03398 10.2266V7.01514C7.70583 6.96137 7.37389 6.93404 7.04136 6.9334C5.84495 6.9334 4.6754 7.28817 3.68062 7.95287C2.68584 8.61756 1.9105 9.56231 1.45266 10.6676C0.994808 11.773 0.875015 12.9893 1.10842 14.1627C1.34183 15.3361 1.91796 16.414 2.76395 17.26C3.60994 18.106 4.6878 18.6821 5.86122 18.9155C7.03465 19.1489 8.25094 19.0291 9.35628 18.5713C10.4616 18.1134 11.4064 17.3381 12.0711 16.3433C12.7358 15.3485 13.0905 14.179 13.0905 12.9826C13.0899 12.7347 13.0743 12.487 13.0438 12.241V6.89836C14.4696 7.78877 16.1284 8.23397 17.8084 8.1771Z" fill="white"/>
</svg>
