<svg width="21" height="20" viewBox="0 0 21 20" fill="none" xmlns="http://www.w3.org/2000/svg">
<path d="M10.6353 0.0317383H10.6303C5.1489 0.0317383 0.691419 4.29248 0.691419 9.53173C0.688015 11.5327 1.35084 13.4828 2.58401 15.0999L1.34507 18.6292L5.16629 17.4618C6.7872 18.4895 8.69012 19.0357 10.6353 19.0317C16.1167 19.0317 20.5742 14.7698 20.5742 9.53173C20.5742 4.29367 16.1167 0.0317383 10.6353 0.0317383ZM16.42 13.4469C16.1801 14.0941 15.2282 14.6308 14.469 14.7876C13.9495 14.8933 13.271 14.9776 10.987 14.0727C8.06545 12.9161 6.18404 10.0792 6.03741 9.8951C5.89699 9.71104 4.85687 8.39292 4.85687 7.02967C4.85687 5.66642 5.58135 5.00261 5.87338 4.71761C6.11321 4.48367 6.50962 4.3768 6.88988 4.3768C7.01291 4.3768 7.12351 4.38273 7.22292 4.38748C7.51495 4.39936 7.66158 4.41598 7.8542 4.85654C8.09404 5.40873 8.67809 6.77198 8.74768 6.91211C8.81852 7.05223 8.88935 7.24223 8.78993 7.42629C8.69673 7.61629 8.61472 7.7006 8.46808 7.8621C8.32145 8.0236 8.18227 8.1471 8.03563 8.32048C7.90142 8.47129 7.74981 8.63279 7.91882 8.91185C8.08782 9.18498 8.67188 10.0958 9.53181 10.8273C10.6415 11.7713 11.5412 12.073 11.8631 12.2012C12.1029 12.2962 12.3887 12.2737 12.5639 12.0955C12.7864 11.8663 13.061 11.4864 13.3406 11.1123C13.5394 10.8439 13.7905 10.8107 14.0539 10.9057C14.3223 10.9947 15.7427 11.6657 16.0347 11.8046C16.3268 11.9447 16.5194 12.0112 16.5902 12.1288C16.6598 12.2463 16.6598 12.7985 16.42 13.4469Z" fill="white"/>
</svg>
