<svg width="222" height="31" viewBox="0 0 222 31" fill="none" xmlns="http://www.w3.org/2000/svg">
<circle cx="12.9585" cy="15.5351" r="11.9093" stroke="#FF0051" stroke-width="2.09824"/>
<circle cx="16.3685" cy="3.33434" r="3.33434" fill="#FF0051"/>
<circle cx="7.72965" cy="26.5231" r="3.94059" fill="#FF0051"/>
<path d="M9.74258 13.3602C9.78386 13.329 9.83864 13.2885 9.90998 13.2372C10.1566 13.0599 10.5336 12.8017 11.0962 12.4263C11.5162 12.1462 11.9043 11.8891 12.1919 11.6995C12.2016 11.6994 12.2114 11.6993 12.2213 11.6992C12.5991 11.6948 13.1168 11.6918 13.6808 11.6918H13.6849L14.6791 11.6898L14.7543 11.844L15.3293 13.0218H16.6399H17.289H17.9381H18.8294L19.4483 12.3802L19.4529 12.3755C19.4702 12.3754 19.4881 12.3753 19.5066 12.3752C19.6092 12.3749 19.7225 12.3749 19.8537 12.375C19.8935 12.375 19.9348 12.375 19.978 12.375C20.0623 12.375 20.1402 12.375 20.2121 12.3751C20.44 12.7774 20.7733 13.3777 21.2743 14.2837L21.2761 14.2869L22.8363 17.0966L23.4202 18.1481L24.2042 18.1661C24.2024 18.1683 24.2005 18.1705 24.1986 18.1727C23.6715 18.7848 23.2875 19.257 23.0044 19.8236M9.74258 13.3602L25.5029 18.1958C25.5034 18.1958 25.504 18.1959 25.5045 18.1959C25.759 18.202 25.9121 18.2071 26.0156 18.2137C26.0628 18.2167 26.0831 18.2192 26.0831 18.2193C26.083 18.2193 26.034 18.2135 25.9612 18.1944C25.852 18.1659 25.6882 18.1081 25.5101 17.9969L25.5312 17.0765H26.8637L25.5313 17.0712L25.5315 17.0647L25.5317 17.0547L25.5536 16.0982M9.74258 13.3602C9.73696 13.3707 9.73129 13.3817 9.72571 13.393C9.72014 13.4043 9.71496 13.4152 9.71021 13.4256C9.7059 13.5171 9.70191 13.641 9.69865 13.7936C9.69169 14.1192 9.68895 14.5333 9.69042 14.9539C9.69189 15.3744 9.69753 15.7883 9.70662 16.1135C9.7112 16.2771 9.71637 16.4079 9.72159 16.5011C9.72245 16.5166 9.72326 16.5298 9.72398 16.5409C9.81431 16.9029 10.0963 17.3455 10.318 17.521L10.3269 17.528L10.3357 17.5351C10.5144 17.6796 10.6081 17.6789 10.6165 17.6788L10.6168 17.6788C10.6198 17.6788 10.6226 17.6788 10.6251 17.6788C10.6411 17.6731 10.6668 17.6633 10.7047 17.6473C10.7741 17.6181 10.869 17.5746 11.0063 17.5076L11.0063 17.5076L11.0136 17.504C11.5994 17.2207 12.2835 16.9307 12.9268 16.8339C12.9276 16.8338 12.9285 16.8337 12.9294 16.8335C12.983 16.8248 13.2223 16.7858 13.506 16.8052C13.8436 16.8282 14.1169 16.9191 14.3136 17.003C14.5631 17.1093 14.8507 17.2825 15.0758 17.4181C15.0977 17.4313 15.1191 17.4442 15.1397 17.4566L15.1397 17.4566L15.1449 17.4597L15.7738 17.8397L16.7869 18.4518V19.6356V19.9328C17.033 20.202 17.2519 20.5086 17.4152 20.8191C17.7423 21.4376 17.7346 22.0287 17.7304 22.3476C17.7303 22.3537 17.7302 22.3597 17.7302 22.3656C17.7238 23.139 17.561 23.8127 17.2707 24.4871M23.0044 19.8236C23.0038 19.8248 23.0032 19.826 23.0026 19.8272L24.8802 20.7634L23.0057 19.8209C23.0053 19.8218 23.0048 19.8227 23.0044 19.8236ZM23.0044 19.8236C23.0015 19.8293 22.9985 19.8352 22.9956 19.841C22.8618 20.1069 22.6685 20.4908 22.5865 21.0791C22.5334 21.4601 22.5279 21.9451 22.5215 22.511C22.521 22.5479 22.5206 22.5852 22.5202 22.6228L22.5202 22.6238C22.5184 22.7844 22.5166 22.9215 22.5148 23.0388M22.5148 23.0388C22.6348 22.9467 22.7539 22.86 22.8628 22.7862C22.9354 22.7361 22.98 22.7044 23.0083 22.6834C23.0391 22.6606 23.0286 22.6667 22.9988 22.6934C22.9772 22.7127 22.9375 22.7497 22.8895 22.8042L23.416 23.585L23.435 23.6133L24.0458 24.5191M22.5148 23.0388C22.5103 23.3234 22.5056 23.4918 22.4997 23.5979C22.4977 23.6336 22.4961 23.6488 22.4962 23.6488C22.4962 23.6488 22.4979 23.6321 22.5024 23.6048C22.5134 23.5383 22.5401 23.4142 22.6019 23.2649C22.6039 23.2602 22.6058 23.2555 22.6078 23.2508C22.61 23.2456 22.6123 23.2405 22.6145 23.2354C22.6664 23.1178 22.7334 23.0025 22.8141 22.8963C22.8354 22.8682 22.8561 22.8427 22.8757 22.82L23.3968 23.5767L23.4168 23.6057L24.0458 24.5191M22.5148 23.0388C22.2719 23.2251 22.0249 23.4334 21.8491 23.6017L21.8412 23.6092L21.8334 23.6169L21.5149 23.9282L20.7834 24.6431L20.896 25.6598L20.9242 25.9145L20.9257 25.9279L20.9258 25.9279C20.9526 26.1566 21.0208 26.4806 21.0859 26.7483M24.0458 24.5191C24.3804 24.2887 24.4852 24.1997 24.5376 24.0744C24.5941 23.9451 24.6062 23.7227 24.6183 22.6474C24.6344 21.2688 24.6384 21.2445 24.8803 20.7635C25.0335 20.4562 25.2553 20.1611 25.7914 19.5385C26.6824 18.4955 26.8598 18.0912 26.8638 17.0765C26.8638 16.6601 26.8517 16.555 26.7832 16.4216C26.6421 16.1427 26.5574 16.1225 25.5536 16.0982M24.0458 24.5191C23.812 24.6768 23.4774 24.9476 23.3 25.1174L22.9815 25.4287M25.5536 16.0982L25.5305 17.0553L25.5302 17.0653L25.5301 17.0712L19.6787 12.1414L19.7087 12.1108L19.7403 12.0788C19.7595 12.0594 19.7693 12.0496 19.7749 12.0441C19.7887 12.0307 19.7575 12.0626 19.6993 12.1071C19.692 12.1127 19.6844 12.1184 19.6764 12.1242L18.1759 10.677M25.5536 16.0982L24.6707 16.078L23.1105 13.2683C21.6753 10.6729 21.5422 10.4506 21.3971 10.3697C21.2439 10.2808 21.2076 10.2767 19.978 10.2767C18.9897 10.2767 18.7004 10.2711 18.489 10.3967C18.3891 10.456 18.3066 10.5446 18.1759 10.677M18.1759 10.677L17.9381 10.9236M18.1759 10.677L19.6563 12.1387L17.9381 10.9236M17.9381 10.9236H17.289H16.6399L16.3577 10.3455C16.1078 9.84012 16.0553 9.75927 15.9142 9.68246L15.757 9.58947M17.9381 10.9236L15.7591 10.6416L16.3576 10.3455L15.7591 10.6377L15.7578 9.96993L15.7577 9.94715L15.757 9.58947M15.757 9.58947L14.8847 11.0645L13.6808 9.59352L15.757 9.58947ZM22.9815 25.4287L23.0097 25.6834L22.9815 25.4287ZM22.9815 25.4287L21.3608 29.8352L20.1855 28.4848L20.1251 28.1872C20.1709 28.1779 20.2045 28.1733 20.2185 28.1716M21.0859 26.7483C21.1344 26.6815 21.1803 26.6179 21.2227 26.5586C21.303 26.4463 21.3652 26.3574 21.4076 26.2948C21.4274 26.2656 21.4386 26.2484 21.4433 26.2411M21.0859 26.7483C21.1026 26.8168 21.1191 26.8817 21.1346 26.9403L21.1349 26.9414C21.1747 27.0912 21.198 27.1844 21.2118 27.2456C21.2185 27.2752 21.2209 27.2882 21.2209 27.2882C21.2209 27.2882 21.2171 27.2674 21.2137 27.2331C21.208 27.1761 21.2011 27.0649 21.217 26.9196C21.2171 26.9192 21.2171 26.9188 21.2172 26.9184C21.2216 26.878 21.2279 26.835 21.2364 26.7898C21.276 26.579 21.3461 26.4231 21.3838 26.3483C21.3844 26.3472 21.3849 26.3461 21.3855 26.3451C21.3861 26.3437 21.3868 26.3424 21.3875 26.3411C21.4137 26.29 21.4359 26.253 21.4433 26.2411M21.0859 26.7483C20.9526 26.932 20.7994 27.1397 20.6437 27.3482C20.4314 27.6325 20.2212 27.909 20.0572 28.1194C20.0397 28.1418 20.0231 28.163 20.0072 28.1832M21.4433 26.2411C21.445 26.2384 21.4459 26.237 21.4459 26.2369C21.446 26.2369 21.4451 26.2382 21.4433 26.2411ZM20.0072 28.1832C20.0934 28.1801 20.1563 28.1766 20.1963 28.1735C20.2064 28.1727 20.2137 28.1721 20.2185 28.1716M20.0072 28.1832C19.948 28.2585 19.9006 28.3178 19.8659 28.36C19.8434 28.3874 19.8338 28.3984 19.8342 28.3979C19.8345 28.3975 19.8433 28.3875 19.8585 28.3715C19.8685 28.361 19.9091 28.3182 19.9692 28.2649L20.1716 28.4933L20.5424 30.2436C20.2038 30.3123 18.5065 30.3002 18.2162 30.2274L18.6813 28.4881L18.9357 28.3555C18.9364 28.3568 18.9363 28.3567 18.9355 28.355C18.9329 28.3498 18.9234 28.3305 18.905 28.2916C18.8904 28.2605 18.8729 28.2229 18.8528 28.1789M20.0072 28.1832C20.006 28.1832 20.0048 28.1833 20.0036 28.1833C19.8287 28.1894 19.606 28.192 19.3759 28.1903C19.1862 28.189 19.0044 28.1849 18.8528 28.1789M20.2185 28.1716C20.223 28.1711 20.2255 28.1709 20.2256 28.1709C20.2256 28.1709 20.2234 28.1712 20.2185 28.1716ZM18.8528 28.1789C18.8203 28.1775 18.7892 28.1762 18.7597 28.1747C18.6751 28.1704 18.6177 28.1662 18.5855 28.1631C18.582 28.1628 18.579 28.1625 18.5763 28.1622L17.0753 29.3259M18.8528 28.1789C18.8422 28.1559 18.831 28.1311 18.8189 28.1046C18.7489 27.9501 18.6604 27.7508 18.5591 27.5194C18.3568 27.0576 18.1106 26.4851 17.8719 25.9228C17.6486 25.3968 17.4344 24.8856 17.2707 24.4871M17.0753 29.3259L18.6479 28.5056L17.0753 29.3259ZM17.0753 29.3259C16.8012 28.8003 15.0112 24.5838 15.0112 24.4625C15.0112 24.3897 15.0838 24.1917 15.1724 24.0178L16.0364 24.4625L17.0366 24.9773C17.0331 24.988 17.0309 24.9941 17.0304 24.9952L17.0304 24.9954C17.0299 24.9966 17.0302 24.996 17.031 24.9941C17.0326 24.9904 17.0363 24.9816 17.0407 24.9729C17.1244 24.81 17.2012 24.6485 17.2707 24.4871M17.2707 24.4871C17.2593 24.4592 17.2481 24.4318 17.2371 24.405C17.1527 24.1988 17.0877 24.0368 17.0456 23.9278C17.0354 23.9014 17.0273 23.8802 17.0212 23.864L17.0143 23.8451C17.0129 23.8412 17.0121 23.8391 17.012 23.8387L17.0129 23.8415L17.0158 23.8502C17.018 23.8569 17.0231 23.8724 17.0294 23.8939C17.0346 23.9117 17.0473 23.9558 17.0605 24.0147C17.0606 24.0154 17.0609 24.0164 17.0611 24.0177C17.068 24.0477 17.1094 24.2293 17.1094 24.4625C17.1094 24.6126 17.0922 24.7271 17.0832 24.7805C17.0727 24.8421 17.0615 24.8885 17.0547 24.9144C17.0486 24.9378 17.0431 24.9566 17.0388 24.9701" fill="#FF0051" stroke="#FF0051" stroke-width="4.19648"/>
<path d="M43.0106 3.29072V12.9929H39.7541V3.29072H34.5576V27.1731H39.7541V17.4709H43.0106V27.1731H48.2071V3.29072H43.0106Z" fill="white"/>
<path d="M55.4151 7.47014C51.2232 7.47014 48.9021 9.47029 48.9021 14.2766V20.6652C48.9021 25.4715 51.2232 27.4716 55.4151 27.4716C59.6069 27.4716 61.928 25.4715 61.928 20.6652V19.5606H56.7315V20.6652C56.7315 22.6952 56.5583 23.2922 55.4151 23.2922C54.2718 23.2922 54.0986 22.6952 54.0986 20.6652V18.3665H61.928V14.2766C61.928 9.47029 59.6069 7.47014 55.4151 7.47014ZM56.7315 15.3812H54.0986V14.2766C54.0986 12.2466 54.2718 11.6496 55.4151 11.6496C56.5237 11.6496 56.7315 12.2466 56.7315 14.2766V15.3812Z" fill="white"/>
<path d="M62.6377 3.29072V27.1731H67.8342V3.29072H62.6377Z" fill="white"/>
<path d="M71.1226 6.87308C72.543 6.87308 73.7208 6.00734 73.7208 4.96249C73.7208 3.85793 72.543 2.99219 71.1226 2.99219C69.7022 2.99219 68.5243 3.85793 68.5243 4.96249C68.5243 6.00734 69.7022 6.87308 71.1226 6.87308ZM68.5243 7.76867V27.1731H73.7208V7.76867H68.5243Z" fill="white"/>
<path d="M87.4369 24.3072V7.76867H82.2404V21.5608C82.2404 22.9937 81.79 23.2922 80.9239 23.2922C80.0579 23.2922 79.6075 22.9937 79.6075 21.5608V7.76867H74.411V21.2622C74.411 25.4715 74.9999 27.4716 78.1871 27.4716C80.4736 27.4716 81.6861 26.0686 82.2404 24.9938C82.2404 25.5312 82.4136 26.7253 83.2797 27.1731H87.7833C87.4369 26.2178 87.4369 25.5611 87.4369 24.3072Z" fill="white"/>
<path d="M104.706 7.47014C102.662 7.47014 101.138 8.78367 100.549 10.0972C100.133 8.33587 99.1978 7.47014 97.2231 7.47014C95.1099 7.47014 93.8973 8.87323 93.343 9.94794V7.76867H88.1465V27.1731H93.343V13.381C93.343 11.9481 93.7934 11.6496 94.4863 11.6496C95.1791 11.6496 95.6295 11.9481 95.6295 13.381V27.1731H100.826V13.381C100.826 11.9481 101.276 11.6496 101.969 11.6496C102.662 11.6496 103.112 11.9481 103.112 13.381V27.1731H108.309V13.6796C108.309 9.47029 107.72 7.47014 104.706 7.47014Z" fill="white"/>
<path d="M119.518 27.1731H122.117L117.786 3.29072H114.079L109.783 27.1731H112.382L113.248 21.9787H118.652L119.518 27.1731ZM113.629 19.7397L115.95 5.88793L118.271 19.7397H113.629Z" fill="white"/>
<path d="M131.265 7.47014C128.667 7.47014 127.351 9.02249 126.692 10.2763V7.76867H124.094V27.1731H126.692V13.9482C126.692 12.0376 128.078 9.41058 130.295 9.41058C132.235 9.41058 132.443 10.8435 132.443 12.6944V13.9781H135.041V13.2318C135.041 9.47029 134.383 7.47014 131.265 7.47014Z" fill="white"/>
<path d="M141.436 9.70911H145.42V7.76867H139.358C140.674 7.38058 142.025 5.52969 142.025 3.29072H139.427C139.461 5.35058 138.284 7.26117 136.24 7.76867V9.70911H138.838V20.6652C138.838 24.7849 139.046 27.1731 143.619 27.1731H145.42V25.2327H143.861C141.401 25.2327 141.436 23.5908 141.436 20.6652V9.70911Z" fill="white"/>
<path d="M168.398 7.76867L160.984 23.9788V7.76867H157.381L150.002 23.9191V7.76867H147.404V27.1731H150.972L158.386 11.1421V27.1731H161.989L171.239 7.76867H168.398Z" fill="white"/>
<path d="M171.289 20.4263C171.289 25.2327 172.813 27.4716 177.005 27.4716C181.197 27.4716 182.756 25.2327 182.756 20.4263V14.4856C182.756 9.67926 181.197 7.47014 177.005 7.47014C172.813 7.47014 171.289 9.67926 171.289 14.4856V20.4263ZM173.887 21.113V13.8288C173.887 10.2166 175.1 9.41058 177.005 9.41058C178.911 9.41058 180.158 10.2166 180.158 13.8288V21.113C180.158 24.6953 178.945 25.5312 177.005 25.5312C175.1 25.5312 173.887 24.6953 173.887 21.113Z" fill="white"/>
<path d="M192.196 7.47014C189.597 7.47014 188.281 9.02249 187.623 10.2763V7.76867H185.024V27.1731H187.623V13.9482C187.623 12.0376 189.008 9.41058 191.226 9.41058C193.166 9.41058 193.374 10.8435 193.374 12.6944V13.9781H195.972V13.2318C195.972 9.47029 195.314 7.47014 192.196 7.47014Z" fill="white"/>
<path d="M197.948 3.29072V27.1731H200.546V3.29072H197.948ZM210.177 7.76867H207.267L200.546 17.4709L207.267 27.1731H210.177L203.352 17.4709L210.177 7.76867Z" fill="white"/>
<path d="M217.393 16.3066C214.968 14.605 213.374 14.0079 213.374 11.8884C213.374 10.2166 214.621 9.41058 216.18 9.41058C218.12 9.41058 219.298 10.0076 219.298 13.7393H221.896C221.896 9.88823 220.545 7.47014 216.18 7.47014C211.815 7.47014 210.776 9.97779 210.776 11.8884C210.776 15.0528 213.236 16.2768 215.106 17.5605C218.12 19.6203 219.402 20.5159 219.402 22.6355C219.402 24.4863 218.536 25.5312 216.527 25.5312C213.998 25.5312 213.132 24.4863 213.132 20.8144H210.533C210.533 25.3222 211.711 27.4716 216.527 27.4716C221.307 27.4716 222 24.7252 222 22.6355C222 19.5009 219.922 18.0978 217.393 16.3066Z" fill="white"/>
</svg>
